<svg width="14" height="14" viewBox="0 0 14 14" fill="none" xmlns="http://www.w3.org/2000/svg">
<path d="M12.8696 6.38321L7.61686 1.12993C7.45291 0.966962 7.23114 0.875488 6.99998 0.875488C6.76882 0.875488 6.54705 0.966962 6.38311 1.12993L1.13311 6.38321C0.970136 6.54716 0.878662 6.76893 0.878662 7.00009C0.878662 7.23125 0.970136 7.45302 1.13311 7.61696L6.38584 12.8702C6.54978 13.0332 6.77155 13.1247 7.00272 13.1247C7.23388 13.1247 7.45565 13.0332 7.61959 12.8702L12.8723 7.61696C13.0353 7.45302 13.1268 7.23125 13.1268 7.00009C13.1268 6.76893 13.0353 6.54716 12.8723 6.38321H12.8696ZM6.99998 12.2501L1.74998 7.00009L6.99998 1.75009L12.25 7.00009L6.99998 12.2501Z" fill="#299764"/>
</svg>
