<svg width="22" height="22" viewBox="0 0 22 22" fill="none" xmlns="http://www.w3.org/2000/svg">
<path d="M20.2233 10.0309L11.969 1.77576C11.7113 1.51966 11.3628 1.37592 10.9996 1.37592C10.6363 1.37592 10.2878 1.51966 10.0302 1.77576L1.78021 10.0309C1.52412 10.2885 1.38037 10.637 1.38037 11.0003C1.38037 11.3635 1.52412 11.712 1.78021 11.9697L10.0345 20.2248C10.2921 20.4809 10.6406 20.6247 11.0039 20.6247C11.3671 20.6247 11.7156 20.4809 11.9733 20.2248L20.2276 11.9697C20.4837 11.712 20.6274 11.3635 20.6274 11.0003C20.6274 10.637 20.4837 10.2885 20.2276 10.0309H20.2233ZM10.9996 19.2503L2.74959 11.0003L10.9996 2.75029L19.2496 11.0003L10.9996 19.2503Z" fill="#EDEEF0"/>
</svg>
