<svg width="20" height="20" viewBox="0 0 20 20" fill="none" xmlns="http://www.w3.org/2000/svg">
<path d="M18.3851 9.11897L10.8812 1.61428C10.647 1.38147 10.3302 1.25079 9.99999 1.25079C9.66976 1.25079 9.35294 1.38147 9.11874 1.61428L1.61874 9.11897C1.38593 9.35318 1.25525 9.66999 1.25525 10.0002C1.25525 10.3305 1.38593 10.6473 1.61874 10.8815L9.12265 18.3862C9.35685 18.619 9.67367 18.7496 10.0039 18.7496C10.3341 18.7496 10.6509 18.619 10.8851 18.3862L18.3891 10.8815C18.6219 10.6473 18.7525 10.3305 18.7525 10.0002C18.7525 9.66999 18.6219 9.35318 18.3891 9.11897H18.3851ZM9.99999 17.5002L2.49999 10.0002L9.99999 2.50022L17.5 10.0002L9.99999 17.5002Z" fill="#EDEEF0"/>
</svg>
