<svg width="21" height="20" viewBox="0 0 21 20" fill="none" xmlns="http://www.w3.org/2000/svg">
<path d="M18.4306 9.11879L10.9267 1.6141C10.6924 1.38129 10.3756 1.25061 10.0454 1.25061C9.71517 1.25061 9.39835 1.38129 9.16415 1.6141L1.66415 9.11879C1.43134 9.35299 1.30066 9.66981 1.30066 10C1.30066 10.3303 1.43134 10.6471 1.66415 10.8813L9.16806 18.386C9.40226 18.6188 9.71908 18.7495 10.0493 18.7495C10.3795 18.7495 10.6964 18.6188 10.9306 18.386L18.4345 10.8813C18.6673 10.6471 18.798 10.3303 18.798 10C18.798 9.66981 18.6673 9.35299 18.4345 9.11879H18.4306ZM10.0454 17.5L2.5454 10L10.0454 2.50004L17.5454 10L10.0454 17.5Z" fill="#7E808A"/>
</svg>
