<svg width="14" height="14" viewBox="0 0 14 14" fill="none" xmlns="http://www.w3.org/2000/svg">
<path d="M12.8696 6.38309L7.61686 1.12981C7.45291 0.96684 7.23114 0.875366 6.99998 0.875366C6.76882 0.875366 6.54705 0.96684 6.38311 1.12981L1.13311 6.38309C0.970136 6.54703 0.878662 6.7688 0.878662 6.99997C0.878662 7.23113 0.970136 7.4529 1.13311 7.61684L6.38584 12.8701C6.54978 13.0331 6.77155 13.1246 7.00272 13.1246C7.23388 13.1246 7.45565 13.0331 7.61959 12.8701L12.8723 7.61684C13.0353 7.4529 13.1268 7.23113 13.1268 6.99997C13.1268 6.7688 13.0353 6.54703 12.8723 6.38309H12.8696ZM6.99998 12.25L1.74998 6.99997L6.99998 1.74997L12.25 6.99997L6.99998 12.25Z" fill="#1C2024"/>
</svg>
