<svg width="18" height="18" viewBox="0 0 18 18" fill="none" xmlns="http://www.w3.org/2000/svg">
<path d="M16.5463 8.20685L9.79279 1.45263C9.582 1.2431 9.29687 1.12549 8.99966 1.12549C8.70245 1.12549 8.41732 1.2431 8.20654 1.45263L1.45654 8.20685C1.247 8.41763 1.12939 8.70276 1.12939 8.99997C1.12939 9.29718 1.247 9.58232 1.45654 9.7931L8.21005 16.5473C8.42083 16.7568 8.70597 16.8745 9.00318 16.8745C9.30039 16.8745 9.58552 16.7568 9.7963 16.5473L16.5498 9.7931C16.7593 9.58232 16.877 9.29718 16.877 8.99997C16.877 8.70276 16.7593 8.41763 16.5498 8.20685H16.5463ZM8.99966 15.75L2.24966 8.99997L8.99966 2.24997L15.7497 8.99997L8.99966 15.75Z" fill="#EDEEF0"/>
</svg>
