<svg width="16" height="16" viewBox="0 0 16 16" fill="none" xmlns="http://www.w3.org/2000/svg">
<path d="M14.7081 7.29515L8.70494 1.2914C8.51758 1.10515 8.26413 1.00061 7.99994 1.00061C7.73576 1.00061 7.48231 1.10515 7.29494 1.2914L1.29494 7.29515C1.10869 7.48252 1.00415 7.73597 1.00415 8.00015C1.00415 8.26434 1.10869 8.51779 1.29494 8.70515L7.29807 14.7089C7.48543 14.8952 7.73888 14.9997 8.00307 14.9997C8.26725 14.9997 8.52071 14.8952 8.70807 14.7089L14.7112 8.70515C14.8974 8.51779 15.002 8.26434 15.002 8.00015C15.002 7.73597 14.8974 7.48252 14.7112 7.29515H14.7081ZM7.99994 14.0002L1.99994 8.00015L7.99994 2.00015L13.9999 8.00015L7.99994 14.0002Z" fill="#7E808A"/>
</svg>
