<svg width="14" height="14" viewBox="0 0 14 14" fill="none" xmlns="http://www.w3.org/2000/svg">
<path d="M12.8696 6.38337L7.61686 1.13008C7.45291 0.967115 7.23114 0.875641 6.99998 0.875641C6.76882 0.875641 6.54705 0.967115 6.38311 1.13008L1.13311 6.38337C0.970136 6.54731 0.878662 6.76908 0.878662 7.00024C0.878662 7.2314 0.970136 7.45317 1.13311 7.61712L6.38584 12.8704C6.54978 13.0334 6.77155 13.1248 7.00272 13.1248C7.23388 13.1248 7.45565 13.0334 7.61959 12.8704L12.8723 7.61712C13.0353 7.45317 13.1268 7.2314 13.1268 7.00024C13.1268 6.76908 13.0353 6.54731 12.8723 6.38337H12.8696ZM6.99998 12.2502L1.74998 7.00024L6.99998 1.75024L12.25 7.00024L6.99998 12.2502Z" fill="#E9F9EE"/>
</svg>
