<svg width="23" height="22" viewBox="0 0 23 22" fill="none" xmlns="http://www.w3.org/2000/svg">
<path d="M20.7233 10.0308L12.469 1.77563C12.2113 1.51954 11.8628 1.37579 11.4996 1.37579C11.1363 1.37579 10.7878 1.51954 10.5302 1.77563L2.28021 10.0308C2.02412 10.2884 1.88037 10.6369 1.88037 11.0002C1.88037 11.3634 2.02412 11.7119 2.28021 11.9695L10.5345 20.2247C10.7921 20.4808 11.1406 20.6245 11.5039 20.6245C11.8671 20.6245 12.2156 20.4808 12.4733 20.2247L20.7276 11.9695C20.9837 11.7119 21.1274 11.3634 21.1274 11.0002C21.1274 10.6369 20.9837 10.2884 20.7276 10.0308H20.7233ZM11.4996 19.2502L3.24959 11.0002L11.4996 2.75016L19.7496 11.0002L11.4996 19.2502Z" fill="#EDEEF0"/>
</svg>
