<svg width="18" height="18" viewBox="0 0 18 18" fill="none" xmlns="http://www.w3.org/2000/svg">
<path d="M16.5467 8.20685L9.79315 1.45263C9.58237 1.2431 9.29724 1.12549 9.00003 1.12549C8.70282 1.12549 8.41769 1.2431 8.2069 1.45263L1.4569 8.20685C1.24737 8.41763 1.12976 8.70276 1.12976 8.99997C1.12976 9.29718 1.24737 9.58232 1.4569 9.7931L8.21042 16.5473C8.4212 16.7568 8.70633 16.8745 9.00354 16.8745C9.30075 16.8745 9.58589 16.7568 9.79667 16.5473L16.5502 9.7931C16.7597 9.58232 16.8773 9.29718 16.8773 8.99997C16.8773 8.70276 16.7597 8.41763 16.5502 8.20685H16.5467ZM9.00003 15.75L2.25003 8.99997L9.00003 2.24997L15.75 8.99997L9.00003 15.75Z" fill="#1B1B1F"/>
</svg>
