<svg width="16" height="16" viewBox="0 0 16 16" fill="none" xmlns="http://www.w3.org/2000/svg">
<path d="M14.5 8.00047C14.4979 9.5891 13.9151 11.1222 12.8612 12.3109C11.8072 13.4996 10.355 14.2619 8.7781 14.4542C8.74298 14.4582 8.70743 14.4547 8.67377 14.4439C8.64011 14.4331 8.60912 14.4154 8.58284 14.3917C8.55656 14.3681 8.53559 14.3392 8.5213 14.3069C8.50702 14.2745 8.49975 14.2396 8.49997 14.2042V9.50047H9.99997C10.0685 9.50062 10.1364 9.48668 10.1993 9.45951C10.2622 9.43233 10.3189 9.39251 10.3658 9.34252C10.4127 9.29252 10.4488 9.23342 10.4719 9.16888C10.4949 9.10434 10.5045 9.03574 10.5 8.96735C10.4889 8.83877 10.4296 8.71915 10.3339 8.63254C10.2383 8.54592 10.1134 8.49874 9.98435 8.50047H8.49997V7.00047C8.49997 6.73526 8.60533 6.4809 8.79286 6.29337C8.9804 6.10583 9.23475 6.00047 9.49997 6.00047H10.5C10.5685 6.00062 10.6364 5.98668 10.6993 5.95951C10.7622 5.93233 10.8189 5.89251 10.8658 5.84252C10.9127 5.79252 10.9488 5.73342 10.9719 5.66888C10.9949 5.60434 11.0045 5.53574 11 5.46735C10.9889 5.33856 10.9294 5.21875 10.8335 5.1321C10.7376 5.04546 10.6123 4.99842 10.4831 5.00047H9.49997C8.96954 5.00047 8.46083 5.21119 8.08576 5.58626C7.71069 5.96133 7.49997 6.47004 7.49997 7.00047V8.50047H5.99997C5.93143 8.50032 5.86359 8.51427 5.80066 8.54144C5.73773 8.56861 5.68106 8.60843 5.63417 8.65843C5.58728 8.70843 5.55117 8.76753 5.52809 8.83207C5.505 8.89661 5.49543 8.9652 5.49997 9.0336C5.51103 9.16239 5.57052 9.28219 5.66645 9.36884C5.76238 9.45549 5.8876 9.50253 6.01685 9.50047H7.49997V14.2055C7.50019 14.2408 7.49293 14.2757 7.47868 14.3079C7.46444 14.3402 7.44352 14.3691 7.41731 14.3927C7.3911 14.4163 7.36019 14.4341 7.32661 14.445C7.29303 14.4558 7.25754 14.4594 7.22247 14.4555C5.60332 14.2583 4.1172 13.4604 3.05827 12.2198C1.99934 10.9791 1.44477 9.38613 1.50435 7.7561C1.62935 4.3811 4.3631 1.63735 7.7406 1.5061C8.61503 1.47223 9.48731 1.61507 10.3053 1.92608C11.1232 2.23708 11.87 2.70987 12.5011 3.31616C13.1321 3.92244 13.6344 4.64977 13.9778 5.45464C14.3213 6.25951 14.4989 7.12539 14.5 8.00047Z" fill="#696E77"/>
</svg>
