<svg width="21" height="20" viewBox="0 0 21 20" fill="none" xmlns="http://www.w3.org/2000/svg">
<path d="M10.5454 1.875C8.93844 1.875 7.36755 2.35152 6.03141 3.24431C4.69526 4.1371 3.65385 5.40605 3.03889 6.8907C2.42393 8.37535 2.26303 10.009 2.57653 11.5851C2.89004 13.1612 3.66387 14.6089 4.80017 15.7452C5.93647 16.8815 7.38421 17.6554 8.96031 17.9689C10.5364 18.2824 12.1701 18.1215 13.6547 17.5065C15.1394 16.8916 16.4083 15.8502 17.3011 14.514C18.1939 13.1779 18.6704 11.607 18.6704 10C18.6681 7.84581 17.8114 5.78051 16.2881 4.25727C14.7649 2.73403 12.6996 1.87727 10.5454 1.875ZM17.3915 9.375H14.2798C14.1696 7.15156 13.4774 5.04141 12.3173 3.35938C13.676 3.72417 14.8906 4.49613 15.7977 5.57152C16.7048 6.64691 17.261 7.97419 17.3915 9.375ZM10.5454 16.8664C9.08213 15.2828 8.19463 13.0383 8.06338 10.625H13.0274C12.8962 13.0367 12.0087 15.2828 10.5454 16.8664ZM8.06338 9.375C8.19463 6.96328 9.07901 4.71719 10.5454 3.13359C12.0087 4.71719 12.8962 6.96172 13.0274 9.375H8.06338ZM8.77354 3.35938C7.61338 5.04141 6.92119 7.15156 6.81104 9.375H3.69932C3.82985 7.97419 4.38604 6.64691 5.29314 5.57152C6.20024 4.49613 7.41478 3.72417 8.77354 3.35938ZM3.69932 10.625H6.81104C6.92119 12.8484 7.61338 14.9586 8.77354 16.6406C7.41478 16.2758 6.20024 15.5039 5.29314 14.4285C4.38604 13.3531 3.82985 12.0258 3.69932 10.625ZM12.3173 16.6406C13.4774 14.9563 14.1696 12.8461 14.2798 10.625H17.3915C17.261 12.0258 16.7048 13.3531 15.7977 14.4285C14.8906 15.5039 13.676 16.2758 12.3173 16.6406Z" fill="#1C2024"/>
</svg>
