<svg width="16" height="16" viewBox="0 0 16 16" fill="none" xmlns="http://www.w3.org/2000/svg">
<path d="M8 1.50012C6.71442 1.50012 5.45772 1.88134 4.3888 2.59557C3.31988 3.3098 2.48676 4.32496 1.99479 5.51268C1.50282 6.7004 1.37409 8.00733 1.6249 9.26821C1.8757 10.5291 2.49477 11.6873 3.40381 12.5963C4.31285 13.5054 5.47104 14.1244 6.73192 14.3752C7.99279 14.626 9.29973 14.4973 10.4874 14.0053C11.6752 13.5134 12.6903 12.6802 13.4046 11.6113C14.1188 10.5424 14.5 9.2857 14.5 8.00012C14.4982 6.27677 13.8128 4.62453 12.5942 3.40594C11.3756 2.18735 9.72335 1.50194 8 1.50012ZM8 13.5001C6.91221 13.5001 5.84884 13.1776 4.94437 12.5732C4.0399 11.9689 3.33495 11.1099 2.91867 10.1049C2.50238 9.09989 2.39347 7.99402 2.60568 6.92713C2.8179 5.86023 3.34173 4.88022 4.11092 4.11103C4.8801 3.34185 5.86011 2.81802 6.92701 2.6058C7.9939 2.39358 9.09977 2.5025 10.1048 2.91878C11.1098 3.33507 11.9687 4.04002 12.5731 4.94449C13.1774 5.84896 13.5 6.91232 13.5 8.00012C13.4983 9.4583 12.9184 10.8563 11.8873 11.8874C10.8562 12.9185 9.45819 13.4985 8 13.5001ZM9 11.0001C9 11.1327 8.94732 11.2599 8.85356 11.3537C8.75979 11.4474 8.63261 11.5001 8.5 11.5001C8.23479 11.5001 7.98043 11.3948 7.7929 11.2072C7.60536 11.0197 7.5 10.7653 7.5 10.5001V8.00012C7.36739 8.00012 7.24022 7.94744 7.14645 7.85368C7.05268 7.75991 7 7.63273 7 7.50012C7 7.36751 7.05268 7.24034 7.14645 7.14657C7.24022 7.0528 7.36739 7.00012 7.5 7.00012C7.76522 7.00012 8.01957 7.10548 8.20711 7.29302C8.39465 7.48055 8.5 7.73491 8.5 8.00012V10.5001C8.63261 10.5001 8.75979 10.5528 8.85356 10.6466C8.94732 10.7403 9 10.8675 9 11.0001ZM7 5.25012C7 5.10179 7.04399 4.95678 7.1264 4.83344C7.20881 4.71011 7.32595 4.61398 7.46299 4.55721C7.60003 4.50045 7.75083 4.48559 7.89632 4.51453C8.04181 4.54347 8.17544 4.6149 8.28033 4.71979C8.38522 4.82468 8.45665 4.95832 8.48559 5.1038C8.51453 5.24929 8.49968 5.40009 8.44291 5.53713C8.38615 5.67418 8.29002 5.79131 8.16668 5.87372C8.04334 5.95614 7.89834 6.00012 7.75 6.00012C7.55109 6.00012 7.36032 5.9211 7.21967 5.78045C7.07902 5.6398 7 5.44903 7 5.25012Z" fill="#7E808A"/>
</svg>
