<svg width="16" height="16" viewBox="0 0 16 16" fill="none" xmlns="http://www.w3.org/2000/svg">
<path d="M11 1.50049H5C4.07205 1.50148 3.18238 1.87055 2.52622 2.52671C1.87006 3.18287 1.50099 4.07254 1.5 5.00049V11.0005C1.50099 11.9284 1.87006 12.8181 2.52622 13.4743C3.18238 14.1304 4.07205 14.4995 5 14.5005H11C11.928 14.4995 12.8176 14.1304 13.4738 13.4743C14.1299 12.8181 14.499 11.9284 14.5 11.0005V5.00049C14.499 4.07254 14.1299 3.18287 13.4738 2.52671C12.8176 1.87055 11.928 1.50148 11 1.50049ZM8 11.0005C7.40666 11.0005 6.82664 10.8245 6.33329 10.4949C5.83994 10.1653 5.45542 9.69672 5.22836 9.14854C5.0013 8.60036 4.94189 7.99716 5.05764 7.41522C5.1734 6.83327 5.45912 6.29873 5.87868 5.87917C6.29824 5.45961 6.83279 5.17389 7.41473 5.05813C7.99667 4.94238 8.59987 5.00179 9.14805 5.22885C9.69623 5.45591 10.1648 5.84043 10.4944 6.33378C10.8241 6.82712 11 7.40714 11 8.00049C10.9992 8.79588 10.6828 9.55847 10.1204 10.1209C9.55798 10.6833 8.7954 10.9997 8 11.0005ZM11.75 5.00049C11.6017 5.00049 11.4567 4.9565 11.3333 4.87409C11.21 4.79168 11.1139 4.67455 11.0571 4.5375C11.0003 4.40046 10.9855 4.24966 11.0144 4.10417C11.0433 3.95868 11.1148 3.82505 11.2197 3.72016C11.3246 3.61527 11.4582 3.54384 11.6037 3.5149C11.7492 3.48596 11.9 3.50081 12.037 3.55758C12.1741 3.61434 12.2912 3.71047 12.3736 3.83381C12.456 3.95715 12.5 4.10215 12.5 4.25049C12.5 4.4494 12.421 4.64017 12.2803 4.78082C12.1397 4.92147 11.9489 5.00049 11.75 5.00049ZM10 8.00049C10 8.39605 9.8827 8.78273 9.66294 9.11163C9.44318 9.44053 9.13082 9.69687 8.76537 9.84825C8.39991 9.99962 7.99778 10.0392 7.60982 9.96206C7.22186 9.88489 6.86549 9.69441 6.58579 9.4147C6.30608 9.135 6.1156 8.77863 6.03843 8.39067C5.96126 8.00271 6.00087 7.60057 6.15224 7.23512C6.30362 6.86967 6.55996 6.55731 6.88886 6.33755C7.21776 6.11779 7.60444 6.00049 8 6.00049C8.53043 6.00049 9.03914 6.2112 9.41421 6.58627C9.78929 6.96135 10 7.47006 10 8.00049Z" fill="#696E77"/>
</svg>
