<svg width="16" height="16" viewBox="0 0 16 16" fill="none" xmlns="http://www.w3.org/2000/svg">
<path d="M13.5 1.50049H2.5C2.23478 1.50049 1.98043 1.60585 1.79289 1.79338C1.60536 1.98092 1.5 2.23527 1.5 2.50049V13.5005C1.5 13.7657 1.60536 14.0201 1.79289 14.2076C1.98043 14.3951 2.23478 14.5005 2.5 14.5005H13.5C13.7652 14.5005 14.0196 14.3951 14.2071 14.2076C14.3946 14.0201 14.5 13.7657 14.5 13.5005V2.50049C14.5 2.23527 14.3946 1.98092 14.2071 1.79338C14.0196 1.60585 13.7652 1.50049 13.5 1.50049ZM6 11.0005C6 11.1331 5.94732 11.2603 5.85355 11.354C5.75979 11.4478 5.63261 11.5005 5.5 11.5005C5.36739 11.5005 5.24021 11.4478 5.14645 11.354C5.05268 11.2603 5 11.1331 5 11.0005V7.00049C5 6.86788 5.05268 6.7407 5.14645 6.64693C5.24021 6.55317 5.36739 6.50049 5.5 6.50049C5.63261 6.50049 5.75979 6.55317 5.85355 6.64693C5.94732 6.7407 6 6.86788 6 7.00049V11.0005ZM5.5 6.00049C5.35166 6.00049 5.20666 5.9565 5.08332 5.87409C4.95999 5.79168 4.86386 5.67455 4.80709 5.5375C4.75032 5.40046 4.73547 5.24966 4.76441 5.10417C4.79335 4.95868 4.86478 4.82505 4.96967 4.72016C5.07456 4.61527 5.2082 4.54384 5.35368 4.5149C5.49917 4.48596 5.64997 4.50081 5.78701 4.55758C5.92406 4.61434 6.04119 4.71047 6.1236 4.83381C6.20601 4.95715 6.25 5.10215 6.25 5.25049C6.25 5.4494 6.17098 5.64017 6.03033 5.78082C5.88968 5.92147 5.69891 6.00049 5.5 6.00049ZM11.5 11.0005C11.5 11.1331 11.4473 11.2603 11.3536 11.354C11.2598 11.4478 11.1326 11.5005 11 11.5005C10.8674 11.5005 10.7402 11.4478 10.6464 11.354C10.5527 11.2603 10.5 11.1331 10.5 11.0005V8.75049C10.5 8.41897 10.3683 8.10103 10.1339 7.8666C9.89946 7.63218 9.58152 7.50049 9.25 7.50049C8.91848 7.50049 8.60054 7.63218 8.36612 7.8666C8.1317 8.10103 8 8.41897 8 8.75049V11.0005C8 11.1331 7.94732 11.2603 7.85355 11.354C7.75979 11.4478 7.63261 11.5005 7.5 11.5005C7.36739 11.5005 7.24021 11.4478 7.14645 11.354C7.05268 11.2603 7 11.1331 7 11.0005V7.00049C7.00062 6.87802 7.04617 6.76003 7.12801 6.66891C7.20985 6.5778 7.32228 6.51989 7.44398 6.50617C7.56569 6.49245 7.68819 6.52387 7.78826 6.59448C7.88833 6.6651 7.959 6.76998 7.98688 6.88924C8.32512 6.65978 8.71947 6.5268 9.12759 6.50456C9.53571 6.48233 9.94218 6.57168 10.3033 6.76303C10.6645 6.95437 10.9667 7.24049 11.1776 7.59064C11.3884 7.94079 11.4999 8.34176 11.5 8.75049V11.0005Z" fill="#696E77"/>
</svg>
