<svg width="23" height="22" viewBox="0 0 23 22" fill="none" xmlns="http://www.w3.org/2000/svg">
<path d="M18.375 6.87512H15.625V4.81262C15.625 3.7186 15.1904 2.66939 14.4168 1.89581C13.6432 1.12222 12.594 0.687622 11.5 0.687622C10.406 0.687622 9.35677 1.12222 8.58318 1.89581C7.8096 2.66939 7.375 3.7186 7.375 4.81262V6.87512H4.625C4.26033 6.87512 3.91059 7.01999 3.65273 7.27785C3.39487 7.53571 3.25 7.88545 3.25 8.25012V17.8751C3.25 18.2398 3.39487 18.5895 3.65273 18.8474C3.91059 19.1053 4.26033 19.2501 4.625 19.2501H18.375C18.7397 19.2501 19.0894 19.1053 19.3473 18.8474C19.6051 18.5895 19.75 18.2398 19.75 17.8751V8.25012C19.75 7.88545 19.6051 7.53571 19.3473 7.27785C19.0894 7.01999 18.7397 6.87512 18.375 6.87512ZM11.5 14.0939C11.296 14.0939 11.0967 14.0334 10.9271 13.9201C10.7575 13.8068 10.6253 13.6457 10.5472 13.4573C10.4692 13.2688 10.4488 13.0615 10.4886 12.8614C10.5284 12.6614 10.6266 12.4776 10.7708 12.3334C10.915 12.1892 11.0988 12.091 11.2988 12.0512C11.4989 12.0114 11.7062 12.0318 11.8946 12.1099C12.0831 12.1879 12.2441 12.3201 12.3575 12.4897C12.4708 12.6593 12.5312 12.8587 12.5312 13.0626C12.5312 13.3361 12.4226 13.5984 12.2292 13.7918C12.0358 13.9852 11.7735 14.0939 11.5 14.0939ZM14.25 6.87512H8.75V4.81262C8.75 4.08328 9.03973 3.3838 9.55546 2.86808C10.0712 2.35235 10.7707 2.06262 11.5 2.06262C12.2293 2.06262 12.9288 2.35235 13.4445 2.86808C13.9603 3.3838 14.25 4.08328 14.25 4.81262V6.87512Z" fill="#EDEEF0"/>
</svg>
