<svg width="20" height="20" viewBox="0 0 20 20" fill="none" xmlns="http://www.w3.org/2000/svg">
<path d="M17.9805 5.51097L14.4891 2.02035C14.1961 1.72742 13.7987 1.56287 13.3844 1.56287C12.9701 1.56287 12.5727 1.72742 12.2797 2.02035L2.64532 11.6539C2.49973 11.7986 2.3843 11.9708 2.30571 12.1604C2.22713 12.35 2.18695 12.5534 2.18751 12.7586V16.25C2.18751 16.6644 2.35213 17.0619 2.64515 17.3549C2.93818 17.6479 3.33561 17.8125 3.75001 17.8125H16.875C17.1236 17.8125 17.3621 17.7138 17.5379 17.5379C17.7137 17.3621 17.8125 17.1237 17.8125 16.875C17.8125 16.6264 17.7137 16.3879 17.5379 16.2121C17.3621 16.0363 17.1236 15.9375 16.875 15.9375H9.76563L17.9805 7.72113C18.1256 7.57603 18.2408 7.40375 18.3193 7.21414C18.3979 7.02452 18.4383 6.82129 18.4383 6.61605C18.4383 6.4108 18.3979 6.20757 18.3193 6.01796C18.2408 5.82835 18.1256 5.65607 17.9805 5.51097ZM7.10938 15.9375H4.06251V12.8907L10.625 6.32816L13.6719 9.37503L7.10938 15.9375ZM15 8.04691L11.9531 5.00003L13.3859 3.56722L16.4328 6.6141L15 8.04691Z" fill="#7E808A"/>
</svg>
