<svg width="14" height="14" viewBox="0 0 14 14" fill="none" xmlns="http://www.w3.org/2000/svg">
<path d="M12.3594 4.81702C12.3375 4.76233 12.3145 4.70764 12.291 4.65295C11.9382 3.83922 11.3672 3.13893 10.6411 2.62952H11.8125C11.9285 2.62952 12.0398 2.58342 12.1219 2.50138C12.2039 2.41933 12.25 2.30805 12.25 2.19202C12.25 2.07598 12.2039 1.9647 12.1219 1.88266C12.0398 1.80061 11.9285 1.75452 11.8125 1.75452H6.125C4.91537 1.75605 3.75055 2.21245 2.86184 3.03307C1.97314 3.85369 1.42555 4.97852 1.32781 6.1842C0.949901 6.27815 0.614119 6.49545 0.373618 6.80172C0.133118 7.10799 0.00164146 7.48573 0 7.87514C0 7.99117 0.0460936 8.10245 0.128141 8.1845C0.210188 8.26655 0.321468 8.31264 0.4375 8.31264C0.553532 8.31264 0.664812 8.26655 0.746859 8.1845C0.828906 8.10245 0.875 7.99117 0.875 7.87514C0.875102 7.7156 0.91882 7.55913 1.00142 7.42264C1.08403 7.28616 1.20238 7.17485 1.34367 7.10077C1.45257 8.08233 1.86186 9.00633 2.51562 9.74655L3.2025 11.6694C3.26322 11.8394 3.37508 11.9866 3.52274 12.0905C3.67039 12.1945 3.8466 12.2503 4.02719 12.2501H4.72281C4.90331 12.2502 5.0794 12.1944 5.22694 12.0904C5.37448 11.9864 5.48626 11.8393 5.54695 11.6694L5.65195 11.3751H8.78555L8.89055 11.6694C8.95124 11.8393 9.06302 11.9864 9.21056 12.0904C9.3581 12.1944 9.53419 12.2502 9.71469 12.2501H10.4103C10.5908 12.2502 10.7669 12.1944 10.9144 12.0904C11.062 11.9864 11.1738 11.8393 11.2345 11.6694L12.1209 9.18764H12.25C12.5981 9.18764 12.9319 9.04936 13.1781 8.80322C13.4242 8.55708 13.5625 8.22324 13.5625 7.87514V6.12514C13.5625 5.79595 13.4389 5.47875 13.216 5.23645C12.9932 4.99416 12.6874 4.84445 12.3594 4.81702ZM8.3125 3.93764H6.125C6.00897 3.93764 5.89769 3.89155 5.81564 3.8095C5.73359 3.72745 5.6875 3.61617 5.6875 3.50014C5.6875 3.38411 5.73359 3.27283 5.81564 3.19078C5.89769 3.10874 6.00897 3.06264 6.125 3.06264H8.3125C8.42853 3.06264 8.53981 3.10874 8.62186 3.19078C8.70391 3.27283 8.75 3.38411 8.75 3.50014C8.75 3.61617 8.70391 3.72745 8.62186 3.8095C8.53981 3.89155 8.42853 3.93764 8.3125 3.93764ZM9.84375 7.00014C9.71396 7.00014 9.58708 6.96165 9.47916 6.88954C9.37124 6.81743 9.28712 6.71494 9.23745 6.59503C9.18778 6.47511 9.17479 6.34316 9.20011 6.21586C9.22543 6.08856 9.28793 5.97163 9.37971 5.87985C9.47149 5.78807 9.58842 5.72557 9.71572 5.70025C9.84302 5.67493 9.97497 5.68793 10.0949 5.7376C10.2148 5.78727 10.3173 5.87138 10.3894 5.9793C10.4615 6.08722 10.5 6.2141 10.5 6.34389C10.5 6.51794 10.4309 6.68486 10.3078 6.80793C10.1847 6.931 10.0178 7.00014 9.84375 7.00014Z" fill="#299764"/>
</svg>
