<svg width="16" height="16" viewBox="0 0 16 16" fill="none" xmlns="http://www.w3.org/2000/svg">
<path d="M14.25 8.00012C14.25 8.19903 14.171 8.3898 14.0303 8.53045C13.8897 8.6711 13.6989 8.75012 13.5 8.75012H8.75V13.5001C8.75 13.699 8.67098 13.8898 8.53033 14.0305C8.38968 14.1711 8.19891 14.2501 8 14.2501C7.80109 14.2501 7.61032 14.1711 7.46967 14.0305C7.32902 13.8898 7.25 13.699 7.25 13.5001V8.75012H2.5C2.30109 8.75012 2.11032 8.6711 1.96967 8.53045C1.82902 8.3898 1.75 8.19903 1.75 8.00012C1.75 7.80121 1.82902 7.61044 1.96967 7.46979C2.11032 7.32914 2.30109 7.25012 2.5 7.25012H7.25V2.50012C7.25 2.30121 7.32902 2.11044 7.46967 1.96979C7.61032 1.82914 7.80109 1.75012 8 1.75012C8.19891 1.75012 8.38968 1.82914 8.53033 1.96979C8.67098 2.11044 8.75 2.30121 8.75 2.50012V7.25012H13.5C13.6989 7.25012 13.8897 7.32914 14.0303 7.46979C14.171 7.61044 14.25 7.80121 14.25 8.00012Z" fill="#7E808A"/>
</svg>
