<svg width="16" height="16" viewBox="0 0 16 16" fill="none" xmlns="http://www.w3.org/2000/svg">
<path d="M14.5 5.00049V7.50049C14.5 7.6331 14.4473 7.76027 14.3536 7.85404C14.2598 7.94781 14.1326 8.00049 14 8.00049C12.9555 8.00291 11.926 7.75177 11 7.26861V9.75049C11 11.0103 10.4996 12.2184 9.60876 13.1092C8.71796 14 7.50978 14.5005 6.25 14.5005C4.99022 14.5005 3.78204 14 2.89124 13.1092C2.00044 12.2184 1.5 11.0103 1.5 9.75049C1.5 7.44424 3.18187 5.40549 5.4125 5.00799C5.48446 4.9952 5.55835 4.99834 5.62896 5.01719C5.69958 5.03604 5.7652 5.07015 5.82121 5.1171C5.87722 5.16405 5.92226 5.22272 5.95315 5.28895C5.98404 5.35519 6.00003 5.4274 6 5.50049V8.16861C6.00003 8.26324 5.97321 8.35594 5.92265 8.43593C5.87209 8.51592 5.79987 8.57992 5.71438 8.62049C5.51227 8.71633 5.33959 8.86465 5.21434 9.04998C5.08909 9.2353 5.01587 9.45083 5.0023 9.6741C4.98873 9.89737 5.03533 10.1202 5.13721 10.3193C5.2391 10.5184 5.39255 10.6866 5.58156 10.8062C5.77057 10.9258 5.98822 10.9925 6.21179 10.9993C6.43536 11.0062 6.65667 10.9529 6.85264 10.8451C7.04861 10.7372 7.21205 10.5788 7.32591 10.3862C7.43978 10.1937 7.4999 9.97417 7.5 9.75049V1.50049C7.5 1.36788 7.55268 1.2407 7.64645 1.14693C7.74021 1.05317 7.86739 1.00049 8 1.00049H10.5C10.6326 1.00049 10.7598 1.05317 10.8536 1.14693C10.9473 1.2407 11 1.36788 11 1.50049C11.0008 2.29588 11.3172 3.05847 11.8796 3.62089C12.442 4.18332 13.2046 4.49966 14 4.50049C14.1326 4.50049 14.2598 4.55317 14.3536 4.64693C14.4473 4.7407 14.5 4.86788 14.5 5.00049Z" fill="#696E77"/>
</svg>
