<svg width="16" height="16" viewBox="0 0 16 16" fill="none" xmlns="http://www.w3.org/2000/svg">
<path d="M15.3538 4.85428L13.485 6.72303C13.1075 11.0993 9.41691 14.5005 5.00003 14.5005C4.09253 14.5005 3.34441 14.3568 2.77628 14.073C2.31816 13.8437 2.13066 13.598 2.08378 13.528C2.04198 13.4653 2.01489 13.394 2.00453 13.3194C1.99417 13.2448 2.00081 13.1688 2.02394 13.0971C2.04708 13.0254 2.08612 12.9598 2.13815 12.9053C2.19018 12.8509 2.25385 12.8088 2.32441 12.7824C2.34066 12.7762 3.83941 12.2005 4.79128 11.1049C4.2634 10.6709 3.80258 10.1612 3.42378 9.5924C2.64878 8.44178 1.78128 6.44303 2.04878 3.45615C2.05726 3.36124 2.09268 3.27073 2.15088 3.19528C2.20907 3.11983 2.28761 3.06258 2.37725 3.03027C2.4669 2.99796 2.5639 2.99193 2.65685 3.01291C2.7498 3.03388 2.83483 3.08098 2.90191 3.14865C2.92378 3.17053 4.98191 5.2174 7.49816 5.88115V5.50053C7.4972 5.1014 7.57611 4.70611 7.73025 4.33795C7.88438 3.96978 8.11063 3.63618 8.39566 3.35678C8.67247 3.08036 9.00184 2.86218 9.36434 2.71512C9.72684 2.56806 10.1151 2.49509 10.5063 2.50053C11.031 2.5057 11.5455 2.64656 11.9996 2.90941C12.4538 3.17225 12.8322 3.54814 13.0982 4.00053H15C15.099 4.00045 15.1957 4.02973 15.278 4.08467C15.3603 4.1396 15.4245 4.21772 15.4623 4.30913C15.5002 4.40054 15.5101 4.50114 15.4908 4.59818C15.4715 4.69522 15.4238 4.78435 15.3538 4.85428Z" fill="#696E77"/>
</svg>
